<mxfile host="app.diagrams.net" agent="Mozilla/5.0 (Windows NT 10.0; Win64; x64) AppleWebKit/537.36 (KHTML, like Gecko) Chrome/141.0.0.0 Safari/537.36" version="28.2.5">
  <diagram name="Page-1" id="dfBdxsZxoFyjgKo16Wi0">
    <mxGraphModel dx="649" dy="1556" grid="1" gridSize="10" guides="1" tooltips="1" connect="1" arrows="1" fold="1" page="1" pageScale="1" pageWidth="827" pageHeight="1169" math="0" shadow="0">
      <root>
        <mxCell id="0" />
        <mxCell id="1" parent="0" />
        <mxCell id="cCdxv8Dc9Y3CUJkiHGjH-7" style="edgeStyle=orthogonalEdgeStyle;rounded=0;orthogonalLoop=1;jettySize=auto;html=1;entryX=0.5;entryY=1;entryDx=0;entryDy=0;" parent="1" source="cCdxv8Dc9Y3CUJkiHGjH-1" target="cCdxv8Dc9Y3CUJkiHGjH-6" edge="1">
          <mxGeometry relative="1" as="geometry" />
        </mxCell>
        <mxCell id="cCdxv8Dc9Y3CUJkiHGjH-1" value="&lt;font style=&quot;font-size: 24px;&quot;&gt;User Input&lt;/font&gt;" style="rounded=0;whiteSpace=wrap;html=1;fillColor=#e51400;fontColor=#ffffff;strokeColor=#B20000;" parent="1" vertex="1">
          <mxGeometry x="270" y="40" width="120" height="60" as="geometry" />
        </mxCell>
        <mxCell id="-1EunzjlYAiXuODHpeC--4" style="edgeStyle=orthogonalEdgeStyle;rounded=0;orthogonalLoop=1;jettySize=auto;html=1;exitX=1;exitY=0.5;exitDx=0;exitDy=0;entryX=0;entryY=0.5;entryDx=0;entryDy=0;" parent="1" source="cCdxv8Dc9Y3CUJkiHGjH-2" target="-1EunzjlYAiXuODHpeC--3" edge="1">
          <mxGeometry relative="1" as="geometry" />
        </mxCell>
        <mxCell id="cCdxv8Dc9Y3CUJkiHGjH-2" value="&lt;font style=&quot;font-size: 24px;&quot;&gt;Save entry to the database&lt;/font&gt;" style="rounded=0;whiteSpace=wrap;html=1;fillColor=#e51400;fontColor=#ffffff;strokeColor=#B20000;" parent="1" vertex="1">
          <mxGeometry x="250" y="260" width="160" height="80" as="geometry" />
        </mxCell>
        <mxCell id="cCdxv8Dc9Y3CUJkiHGjH-3" value="" style="strokeWidth=2;html=1;shape=mxgraph.flowchart.annotation_2;align=left;labelPosition=right;pointerEvents=1;direction=south;" parent="1" vertex="1">
          <mxGeometry x="280" y="100" width="100" height="160" as="geometry" />
        </mxCell>
        <mxCell id="cCdxv8Dc9Y3CUJkiHGjH-4" value="&lt;font style=&quot;font-size: 14px;&quot;&gt;Username&lt;/font&gt;" style="text;html=1;align=center;verticalAlign=middle;resizable=0;points=[];autosize=1;strokeColor=none;fillColor=none;" parent="1" vertex="1">
          <mxGeometry x="185" y="190" width="90" height="30" as="geometry" />
        </mxCell>
        <mxCell id="cCdxv8Dc9Y3CUJkiHGjH-5" value="&lt;font style=&quot;font-size: 14px;&quot;&gt;Password&lt;/font&gt;" style="text;html=1;align=center;verticalAlign=middle;resizable=0;points=[];autosize=1;strokeColor=none;fillColor=none;" parent="1" vertex="1">
          <mxGeometry x="380" y="190" width="80" height="30" as="geometry" />
        </mxCell>
        <mxCell id="cCdxv8Dc9Y3CUJkiHGjH-6" value="&lt;font style=&quot;font-size: 14px;&quot;&gt;Username:&lt;/font&gt;&lt;div&gt;&lt;font size=&quot;3&quot;&gt;Password:&lt;/font&gt;&lt;/div&gt;&lt;div&gt;&lt;font size=&quot;3&quot;&gt;Reason behind using the servise?:&lt;span style=&quot;background-color: transparent; color: light-dark(rgb(0, 0, 0), rgb(255, 255, 255));&quot;&gt;&amp;nbsp;&lt;/span&gt;&lt;/font&gt;&lt;/div&gt;&lt;div&gt;&lt;font size=&quot;3&quot;&gt;since when did you found it sus?:&lt;br&gt;Concsent form check:&lt;/font&gt;&lt;/div&gt;&lt;div&gt;&lt;font size=&quot;3&quot;&gt;Ethical considerations&lt;/font&gt;&lt;/div&gt;&lt;div&gt;&lt;br&gt;&lt;/div&gt;" style="rounded=1;whiteSpace=wrap;html=1;" parent="1" vertex="1">
          <mxGeometry x="410" y="-110" width="250" height="130" as="geometry" />
        </mxCell>
        <mxCell id="-1EunzjlYAiXuODHpeC--1" value="&lt;font style=&quot;font-size: 14px;&quot;&gt;If the consent was given&lt;/font&gt;" style="text;html=1;align=center;verticalAlign=middle;resizable=0;points=[];autosize=1;strokeColor=none;fillColor=none;" parent="1" vertex="1">
          <mxGeometry x="150" y="120" width="170" height="30" as="geometry" />
        </mxCell>
        <mxCell id="-1EunzjlYAiXuODHpeC--3" value="&lt;font style=&quot;font-size: 24px;&quot;&gt;SQLite&lt;/font&gt;" style="rounded=1;whiteSpace=wrap;html=1;" parent="1" vertex="1">
          <mxGeometry x="490" y="260" width="120" height="60" as="geometry" />
        </mxCell>
        <mxCell id="-1EunzjlYAiXuODHpeC--5" value="Users" style="swimlane;startSize=23;" parent="1" vertex="1">
          <mxGeometry x="820" y="200" width="200" height="130" as="geometry" />
        </mxCell>
        <mxCell id="-1EunzjlYAiXuODHpeC--6" value="&lt;font style=&quot;font-size: 14px;&quot;&gt;Username&lt;/font&gt;&lt;div&gt;&lt;font size=&quot;3&quot;&gt;Password&lt;/font&gt;&lt;/div&gt;&lt;div&gt;&lt;font size=&quot;3&quot;&gt;websites surfed&lt;/font&gt;&lt;/div&gt;" style="text;html=1;align=center;verticalAlign=middle;resizable=0;points=[];autosize=1;strokeColor=none;fillColor=none;" parent="-1EunzjlYAiXuODHpeC--5" vertex="1">
          <mxGeometry x="35" y="45" width="130" height="70" as="geometry" />
        </mxCell>
        <mxCell id="hVuF3EK29kmnw9NAhK6H-1" value="" style="rounded=0;whiteSpace=wrap;html=1;fillColor=#e51400;fontColor=#ffffff;strokeColor=#B20000;" vertex="1" parent="1">
          <mxGeometry x="150" y="450" width="600" height="630" as="geometry" />
        </mxCell>
        <mxCell id="hVuF3EK29kmnw9NAhK6H-2" value="&lt;font style=&quot;font-size: 18px;&quot;&gt;Crawling Subsystem&lt;/font&gt;" style="text;html=1;align=center;verticalAlign=middle;resizable=0;points=[];autosize=1;strokeColor=none;fillColor=none;" vertex="1" parent="1">
          <mxGeometry x="300" y="1090" width="190" height="40" as="geometry" />
        </mxCell>
        <mxCell id="hVuF3EK29kmnw9NAhK6H-18" style="edgeStyle=orthogonalEdgeStyle;rounded=0;orthogonalLoop=1;jettySize=auto;html=1;exitX=0.5;exitY=1;exitDx=0;exitDy=0;entryX=0.5;entryY=0;entryDx=0;entryDy=0;" edge="1" parent="1" source="hVuF3EK29kmnw9NAhK6H-3" target="hVuF3EK29kmnw9NAhK6H-4">
          <mxGeometry relative="1" as="geometry" />
        </mxCell>
        <mxCell id="hVuF3EK29kmnw9NAhK6H-3" value="Seed Manager" style="rounded=1;whiteSpace=wrap;html=1;" vertex="1" parent="1">
          <mxGeometry x="180" y="470" width="120" height="90" as="geometry" />
        </mxCell>
        <mxCell id="hVuF3EK29kmnw9NAhK6H-4" value="Fetcher/Downloader" style="rounded=1;whiteSpace=wrap;html=1;" vertex="1" parent="1">
          <mxGeometry x="180" y="585" width="125" height="90" as="geometry" />
        </mxCell>
        <mxCell id="hVuF3EK29kmnw9NAhK6H-5" value="&lt;span style=&quot;color: rgba(0, 0, 0, 0); font-family: monospace; font-size: 0px; text-align: start; text-wrap-mode: nowrap;&quot;&gt;%3CmxGraphModel%3E%3Croot%3E%3CmxCell%20id%3D%220%22%2F%3E%3CmxCell%20id%3D%221%22%20parent%3D%220%22%2F%3E%3CmxCell%20id%3D%222%22%20value%3D%22Fetcher%2FDownloader%22%20style%3D%22rounded%3D1%3BwhiteSpace%3Dwrap%3Bhtml%3D1%3B%22%20vertex%3D%221%22%20parent%3D%221%22%3E%3CmxGeometry%20x%3D%22170%22%20y%3D%22560%22%20width%3D%22190%22%20height%3D%2260%22%20as%3D%22geometry%22%2F%3E%3C%2FmxCell%3E%3C%2Froot%3E%3C%2FmxGraphModel%3E&lt;/span&gt;&lt;strong data-end=&quot;1200&quot; data-start=&quot;1167&quot;&gt;Frontier&lt;/strong&gt;" style="rounded=1;whiteSpace=wrap;html=1;" vertex="1" parent="1">
          <mxGeometry x="200" y="750" width="190" height="60" as="geometry" />
        </mxCell>
        <mxCell id="hVuF3EK29kmnw9NAhK6H-6" value="&lt;div style=&quot;text-align: start;&quot;&gt;&lt;span style=&quot;background-color: transparent; font-size: 0px; text-wrap-mode: nowrap;&quot;&gt;&lt;font face=&quot;monospace&quot; color=&quot;rgba(237, 237, 237, 0)&quot;&gt;v&lt;/font&gt;&lt;/span&gt;&lt;span style=&quot;background-color: transparent; color: light-dark(rgb(0, 0, 0), rgb(255, 255, 255)); text-align: center;&quot;&gt;Renderer&lt;/span&gt;&lt;span style=&quot;background-color: transparent; font-size: 0px; text-wrap-mode: nowrap;&quot;&gt;&lt;font face=&quot;monospace&quot; color=&quot;rgba(237, 237, 237, 0)&quot;&gt;&lt;br&gt;&lt;/font&gt;&lt;/span&gt;&lt;/div&gt;" style="rounded=1;whiteSpace=wrap;html=1;" vertex="1" parent="1">
          <mxGeometry x="170" y="840" width="190" height="60" as="geometry" />
        </mxCell>
        <mxCell id="hVuF3EK29kmnw9NAhK6H-7" value="&lt;div style=&quot;text-align: start;&quot;&gt;&lt;span style=&quot;color: rgba(0, 0, 0, 0); font-family: monospace; font-size: 0px; text-wrap-mode: nowrap;&quot;&gt;%3CmxGraphModel%3E%3Croot%3E%3CmxCell%20id%3D%220%22%2F%3E%3CmxCell%20id%3D%221%22%20parent%3D%220%22%2F%3E%3CmxCell%20id%3D%222%22%20value%3D%22%26lt%3Bdiv%20style%3D%26quot%3Btext-align%3A%20start%3B%26quot%3B%26gt%3B%26lt%3Bspan%20style%3D%26quot%3Bbackground-color%3A%20transparent%3B%20font-size%3A%200px%3B%20text-wrap-mode%3A%20nowrap%3B%26quot%3B%26gt%3B%26lt%3Bfont%20face%3D%26quot%3Bmonospace%26quot%3B%20color%3D%26quot%3Brgba(237%2C%20237%2C%20237%2C%200)%26quot%3B%26gt%3Bv%26lt%3B%2Ffont%26gt%3B%26lt%3B%2Fspan%26gt%3B%26lt%3Bspan%20style%3D%26quot%3Bbackground-color%3A%20transparent%3B%20color%3A%20light-dark(rgb(0%2C%200%2C%200)%2C%20rgb(255%2C%20255%2C%20255))%3B%20text-align%3A%20center%3B%26quot%3B%26gt%3BRenderer%26lt%3B%2Fspan%26gt%3B%26lt%3Bspan%20style%3D%26quot%3Bbackground-color%3A%20transparent%3B%20font-size%3A%200px%3B%20text-wrap-mode%3A%20nowrap%3B%26quot%3B%26gt%3B%26lt%3Bfont%20face%3D%26quot%3Bmonospace%26quot%3B%20color%3D%26quot%3Brgba(237%2C%20237%2C%20237%2C%200)%26quot%3B%26gt%3B%26lt%3Bbr%26gt%3B%26lt%3B%2Ffont%26gt%3B%26lt%3B%2Fspan%26gt%3B%26lt%3B%2Fdiv%26gt%3B%22%20style%3D%22rounded%3D1%3BwhiteSpace%3Dwrap%3Bhtml%3D1%3B%22%20vertex%3D%221%22%20parent%3D%221%22%3E%3CmxGeometry%20x%3D%22170%22%20y%3D%22730%22%20width%3D%22190%22%20height%3D%2260%22%20as%3D%22geometry%22%2F%3E%3C%2FmxCell%3E%3C%2Froot%3E%3C%2FmxGraphModel%3E&lt;/span&gt;&lt;span style=&quot;background-color: transparent; font-size: 0px; text-wrap-mode: nowrap;&quot;&gt;&lt;font face=&quot;monospace&quot; color=&quot;rgba(237, 237, 237, 0)&quot;&gt;&lt;/font&gt;&lt;/span&gt;&lt;span style=&quot;background-color: transparent; color: light-dark(rgb(0, 0, 0), rgb(255, 255, 255)); text-align: center;&quot;&gt;Worker Pool&lt;/span&gt;&lt;/div&gt;" style="rounded=1;whiteSpace=wrap;html=1;" vertex="1" parent="1">
          <mxGeometry x="190" y="970" width="190" height="60" as="geometry" />
        </mxCell>
        <mxCell id="hVuF3EK29kmnw9NAhK6H-15" value="&lt;span style=&quot;font-size: 12px;&quot;&gt;-&amp;gt; list of starting URLs&lt;/span&gt;&lt;div&gt;&lt;br&gt;&lt;div&gt;-&amp;gt; &lt;b&gt;Data structure:&lt;/b&gt;&amp;nbsp;&amp;nbsp;simple list or collections.deque object for a Breadth-First Search (BFS) approach&lt;/div&gt;&lt;/div&gt;&lt;div&gt;&lt;br&gt;&lt;/div&gt;" style="rounded=0;whiteSpace=wrap;html=1;align=left;" vertex="1" parent="1">
          <mxGeometry x="320" y="470" width="410" height="90" as="geometry" />
        </mxCell>
        <mxCell id="hVuF3EK29kmnw9NAhK6H-16" value="&lt;span style=&quot;font-size: 12px;&quot;&gt;-&amp;gt; list of starting URLs&lt;/span&gt;&lt;div&gt;&lt;br&gt;&lt;div&gt;-&amp;gt; &lt;b&gt;Data structure:&lt;/b&gt;&amp;nbsp;&amp;nbsp;simple list or collections.deque object for a Breadth-First Search (BFS) approach&lt;/div&gt;&lt;/div&gt;&lt;div&gt;&lt;br&gt;&lt;/div&gt;" style="rounded=0;whiteSpace=wrap;html=1;align=left;" vertex="1" parent="1">
          <mxGeometry x="320" y="585" width="410" height="90" as="geometry" />
        </mxCell>
        <mxCell id="hVuF3EK29kmnw9NAhK6H-17" style="edgeStyle=orthogonalEdgeStyle;rounded=0;orthogonalLoop=1;jettySize=auto;html=1;exitX=0.5;exitY=1;exitDx=0;exitDy=0;entryX=0.301;entryY=-0.001;entryDx=0;entryDy=0;entryPerimeter=0;" edge="1" parent="1" source="cCdxv8Dc9Y3CUJkiHGjH-2" target="hVuF3EK29kmnw9NAhK6H-1">
          <mxGeometry relative="1" as="geometry" />
        </mxCell>
      </root>
    </mxGraphModel>
  </diagram>
</mxfile>
